{"glyphs":{":":{"x_min":0,"x_max":221,"ha":221,"o":"m 46 300 l 170 300 l 170 425 l 46 425 z m 46 0 l 170 0 l 170 125 l 46 125 z"},"$":{"x_min":0,"x_max":592,"ha":592,"o":"m 329 386 l 330 565 b 330 565 397 549 397 471 l 516 471 b 531 702 329 698 329 698 l 329 761 l 262 761 l 262 695 b 262 695 216 689 169 662 b 120 634 69 582 69 490 b 69 330 262 286 262 286 l 262 118 b 262 118 200 144 200 210 l 45 210 b 45 210 42 44 262 1 l 262 -64 l 330 -64 l 330 1 b 330 1 385 5 440 31 b 493 57 546 104 546 191 b 546 350 329 386 329 386 z m 389 130 b 364 110 329 106 329 106 l 329 262 b 329 262 413 243 413 180 b 413 157 403 141 389 130 z m 229 553 b 246 564 262 568 262 568 l 262 412 b 262 412 197 433 197 496 b 197 524 213 542 229 553 z"},"?":{"x_min":0,"x_max":456,"ha":456,"o":"m 164 0 l 288 0 l 288 124 l 164 124 z m 225 700 b 190 700 161 694 137 682 b 62 646 36 561 36 453 l 153 453 b 153 486 157 548 194 571 b 202 576 213 579 226 579 b 294 579 295 516 295 499 b 295 369 171 418 171 187 l 266 187 b 266 352 414 309 414 503 b 414 651 326 700 225 700 z"},"<":{"x_min":0,"x_max":536,"ha":536,"o":"m 483 515 l 442 594 l 442 594 l 442 594 l 442 594 l 442 594 l 61 357 l 61 286 l 442 52 l 483 129 l 174 323 z"},"'":{"x_min":0,"x_max":220,"ha":220,"o":"m 48 699 l 69 407 l 155 407 l 179 699 z"},"=":{"x_min":0,"x_max":656,"ha":656,"o":"m 108 410 l 554 410 l 554 489 l 108 489 z m 108 210 l 554 210 l 554 289 l 108 289 z"},"a":{"x_min":0,"x_max":613,"ha":613,"o":"m 403 700 l 207 700 l 30 0 l 180 0 l 219 147 l 391 147 l 430 0 l 579 0 z m 253 293 l 305 540 l 358 293 z"},"L":{"x_min":0,"x_max":488,"ha":488,"o":"m 40 700 l 40 0 l 446 0 l 446 134 l 176 134 l 176 699 z"},"3":{"x_min":0,"x_max":483,"ha":483,"o":"m 430 700 l 60 700 l 60 568 l 273 568 l 161 422 l 161 296 l 161 296 l 162 296 l 222 296 b 243 296 261 290 274 277 b 288 263 295 243 296 216 b 295 190 288 171 275 158 l 274 157 b 260 143 244 136 224 136 b 205 136 190 141 180 151 b 168 162 158 177 152 195 l 146 209 l 14 209 l 19 183 b 30 125 54 79 90 47 b 127 16 170 0 218 0 b 279 0 330 21 369 61 b 409 99 429 153 430 219 b 430 317 368 376 303 403 l 430 572 z"},";":{"x_min":0,"x_max":221,"ha":221,"o":"m 46 300 l 170 300 l 170 425 l 46 425 z m 46 0 l 46 124 l 170 124 b 170 124 170 32 170 -9 b 170 -57 152 -140 46 -140 l 46 -78 b 46 -78 110 -81 110 0 z"},"J":{"x_min":0,"x_max":520,"ha":520,"o":"m 332 700 l 332 226 b 332 215 331 204 327 194 b 314 155 277 126 233 126 b 189 126 152 155 139 194 l 76 164 l 10 133 b 51 51 135 -5 233 -5 b 331 -5 415 51 455 133 b 472 166 481 204 481 243 l 481 700 z"},"V":{"x_min":0,"x_max":563,"ha":563,"o":"m 406 700 l 282 160 l 158 700 l 10 700 l 185 0 l 378 0 l 554 700 z"},"\"":{"x_min":0,"x_max":400,"ha":400,"o":"m 48 699 l 69 407 l 155 407 l 179 699 z m 229 699 l 251 407 l 338 407 l 360 699 z"},"7":{"x_min":0,"x_max":454,"ha":454,"o":"m 26 701 l 26 562 l 274 562 l 60 1 l 210 1 l 432 580 l 432 701 z"},"S":{"x_min":0,"x_max":592,"ha":592,"o":"m 201 496 b 201 513 207 526 217 537 l 217 537 l 217 537 b 249 570 319 570 355 529 b 370 513 379 490 379 461 l 379 461 l 517 461 b 517 461 528 548 482 618 b 451 665 394 705 291 705 b 188 705 127 660 93 612 b 63 570 53 526 53 508 b 53 244 407 295 407 184 b 407 169 402 157 394 147 b 361 107 278 108 236 154 b 222 171 213 193 213 221 l 40 221 b 40 162 68 106 115 64 l 115 64 b 115 64 115 64 115 64 b 115 64 115 64 115 64 l 115 64 b 163 22 231 -5 310 -5 b 407 -5 470 28 509 70 b 542 108 556 152 556 188 b 556 430 201 356 201 496 z"},"}":{"x_min":0,"x_max":333,"ha":333,"o":"m 43 707 b 43 707 111 672 111 528 b 111 396 207 340 207 340 b 207 340 111 305 111 147 b 111 -12 43 -12 43 -12 l 43 -67 b 181 -67 226 3 226 151 b 226 299 315 316 315 316 l 315 368 b 315 368 226 374 226 540 b 226 681 132 750 43 750 z"},"Z":{"x_min":0,"x_max":501,"ha":501,"o":"m 464 699 l 40 699 l 40 573 l 327 573 l 40 132 l 40 -1 l 464 -1 l 464 132 l 186 132 l 464 567 z"},"x":{"x_min":0,"x_max":520,"ha":520,"o":"m 336 347 l 509 701 l 361 701 l 260 499 l 159 701 l 11 701 l 187 347 l 187 347 l 11 1 l 159 1 l 260 203 l 361 1 l 509 1 l 335 347 z"},")":{"x_min":0,"x_max":333,"ha":333,"o":"m 61 750 b 61 750 138 539 138 344 b 138 149 61 -63 61 -63 l 139 -65 b 139 -65 243 127 243 355 b 243 583 140 750 140 750 z"},"&":{"x_min":0,"x_max":648,"ha":648,"o":"m 519 151 b 519 151 580 221 603 302 l 499 344 b 499 344 482 283 448 234 l 329 385 l 329 385 b 329 385 345 392 365 407 b 394 431 431 473 431 538 b 431 646 349 700 274 700 b 236 700 201 687 174 665 b 140 636 118 592 118 539 b 118 487 143 444 167 414 b 167 414 46 352 46 220 b 46 88 147 0 259 0 b 312 0 360 19 397 38 b 415 49 431 59 443 68 l 499 5 l 637 5 z m 238 578 b 249 588 263 593 276 593 b 300 593 326 577 326 535 b 326 517 315 503 302 492 b 283 477 261 469 261 469 b 261 469 222 513 222 544 b 222 559 229 570 238 578 z m 330 126 b 310 116 285 107 258 107 b 220 107 150 139 150 213 b 150 253 174 285 195 305 b 213 322 230 331 230 331 l 375 155 b 375 155 357 140 330 126 z"},"_":{"x_min":0,"x_max":580,"ha":580,"o":"m 12 -93 l 562 -93 l 562 -13 l 12 -13 z"},"v":{"x_min":0,"x_max":563,"ha":563,"o":"m 406 700 l 282 160 l 158 700 l 10 700 l 185 0 l 378 0 l 554 700 z"},"O":{"x_min":0,"x_max":575,"ha":575,"o":"m 509 567 b 469 649 385 705 287 705 b 190 705 106 649 65 567 b 49 534 40 497 40 458 l 40 242 b 40 203 49 166 66 133 b 106 51 190 -5 287 -5 b 385 -5 469 51 509 133 b 526 166 535 203 535 242 l 535 458 b 535 497 526 534 509 567 z m 387 473 l 387 225 b 387 214 385 203 381 193 b 368 154 331 126 287 126 b 244 126 207 154 194 193 b 190 203 188 214 188 225 l 188 473 b 188 484 190 495 194 506 b 208 544 244 572 287 572 b 331 572 367 544 381 506 b 385 495 387 484 387 473 z"},"(":{"x_min":0,"x_max":333,"ha":333,"o":"m 245 750 l 166 750 b 166 750 63 583 63 355 b 63 127 167 -65 167 -65 l 245 -63 b 245 -63 168 149 168 344 b 168 539 245 750 245 750 z"},"C":{"x_min":0,"x_max":542,"ha":542,"o":"m 381 193 b 368 154 331 126 287 126 b 244 126 207 154 193 193 b 190 203 188 214 188 225 l 188 473 b 188 484 190 495 194 506 b 208 544 244 572 287 572 b 330 572 367 544 381 506 l 444 536 l 509 567 b 469 649 385 705 287 705 b 190 705 106 649 65 567 b 49 534 40 497 40 458 l 40 242 b 40 203 49 166 65 133 b 106 51 190 -5 287 -5 b 385 -5 469 51 509 133 l 444 164 z"},"W":{"x_min":0,"x_max":928,"ha":928,"o":"m 780 700 l 666 160 l 551 700 l 510 700 l 374 700 l 260 160 l 146 700 l 9 700 l 171 0 l 348 0 l 463 495 l 577 0 l 754 0 l 916 700 z"},"A":{"x_min":0,"x_max":613,"ha":613,"o":"m 403 700 l 207 700 l 30 0 l 180 0 l 219 147 l 391 147 l 430 0 l 579 0 z m 253 293 l 305 540 l 358 293 z"},"f":{"x_min":0,"x_max":532,"ha":532,"o":"m 500 561 l 500 700 l 40 700 l 40 0 l 179 0 l 179 285 l 374 285 l 374 424 l 179 424 l 179 561 z"},"Q":{"x_min":0,"x_max":574,"ha":574,"o":"m 468 74 b 484 91 498 111 509 133 b 525 166 534 203 534 242 l 534 458 b 534 497 525 534 509 567 b 469 649 384 705 287 705 b 189 705 105 649 65 567 b 49 534 39 497 39 458 l 39 242 b 39 203 49 166 65 133 b 105 51 190 -5 287 -5 b 315 -5 341 -1 366 8 l 446 -111 l 607 -111 z m 386 225 b 386 214 384 203 381 193 b 368 154 331 126 287 126 b 243 126 206 154 193 193 b 190 203 188 214 188 225 l 188 473 b 188 485 190 496 193 506 b 207 545 244 572 287 572 b 330 572 367 545 380 506 b 384 496 386 485 386 473 z"},"w":{"x_min":0,"x_max":928,"ha":928,"o":"m 780 700 l 666 160 l 551 700 l 510 700 l 374 700 l 260 160 l 146 700 l 9 700 l 171 0 l 348 0 l 463 495 l 577 0 l 754 0 l 916 700 z"},"-":{"x_min":0,"x_max":529,"ha":529,"o":"m 99 283 l 407 283 l 407 363 l 99 363 z"},"E":{"x_min":0,"x_max":538,"ha":538,"o":"m 501 561 l 501 700 l 40 700 l 40 0 l 501 0 l 501 139 l 179 139 l 179 285 l 375 285 l 375 424 l 179 424 l 179 561 z"},"s":{"x_min":0,"x_max":592,"ha":592,"o":"m 201 496 b 201 513 207 526 217 537 l 217 537 l 217 537 b 249 570 319 570 355 529 b 370 513 379 490 379 461 l 379 461 l 517 461 b 517 461 528 548 482 618 b 451 665 394 705 291 705 b 188 705 127 660 93 612 b 63 570 53 526 53 508 b 53 244 407 295 407 184 b 407 169 402 157 394 147 b 361 107 278 108 236 154 b 222 171 213 193 213 221 l 40 221 b 40 162 68 106 115 64 l 115 64 b 115 64 115 64 115 64 b 115 64 115 64 115 64 l 115 64 b 163 22 231 -5 310 -5 b 407 -5 470 28 509 70 b 542 108 556 152 556 188 b 556 430 201 356 201 496 z"},"l":{"x_min":0,"x_max":488,"ha":488,"o":"m 40 700 l 40 0 l 446 0 l 446 134 l 176 134 l 176 699 z"},"8":{"x_min":0,"x_max":507,"ha":507,"o":"m 404 363 b 417 376 428 391 436 408 b 450 431 457 459 457 491 b 456 551 437 600 399 640 b 362 679 314 699 255 700 l 255 700 b 197 699 150 679 113 640 b 74 600 54 550 54 491 b 54 459 61 431 76 407 b 84 391 94 376 107 362 b 64 325 42 276 42 216 l 42 215 b 42 151 64 99 106 60 b 146 21 196 0 255 0 l 255 0 l 255 0 b 314 0 365 21 406 60 b 447 99 468 151 469 216 b 468 276 446 325 404 363 z m 311 159 b 296 144 277 136 255 136 b 233 136 216 144 201 159 l 200 160 b 184 174 176 193 176 216 b 176 240 184 259 200 274 b 215 288 233 296 255 296 b 278 296 296 288 311 274 b 326 259 334 240 335 216 b 334 193 326 174 311 160 z m 303 441 b 289 428 273 422 255 422 b 237 422 222 428 208 441 l 208 441 b 195 453 188 469 188 493 b 188 517 195 534 208 546 b 222 557 237 563 255 563 b 274 563 289 557 303 546 b 316 534 322 517 323 493 b 322 469 316 452 303 441 z"},"\\":{"x_min":0,"x_max":357,"ha":357,"o":"m 240 0 l 350 0 l 85 700 l -23 700 z"},"e":{"x_min":0,"x_max":537,"ha":537,"o":"m 501 139 l 179 139 l 179 285 l 375 285 l 375 424 l 179 424 l 179 561 l 501 561 l 501 700 l 40 700 l 40 0 l 501 0 z"},"b":{"x_min":0,"x_max":576,"ha":576,"o":"m 472 383 b 494 416 507 455 507 498 b 507 566 474 626 424 663 b 392 686 352 700 310 700 l 40 700 l 40 0 l 328 0 b 380 0 428 19 465 50 l 465 50 b 513 91 543 152 543 220 b 543 284 515 343 472 383 z m 169 574 l 290 574 b 300 574 310 572 319 568 l 319 568 b 343 556 359 532 359 503 b 359 503 360 478 343 459 l 343 459 b 333 448 317 439 290 439 b 219 439 169 439 169 439 z m 336 154 b 327 150 317 148 306 148 l 169 148 l 169 302 l 306 302 b 318 302 328 300 338 295 b 364 283 382 256 382 225 b 382 193 363 166 336 154 z"},"%":{"x_min":0,"x_max":698,"ha":698,"o":"m 575 760 l 83 -77 l 156 -77 l 649 760 z m 526 313 b 501 313 479 307 461 297 b 416 271 394 216 394 156 b 394 82 424 -1 526 -1 b 550 -1 571 4 588 13 b 633 36 657 88 657 158 b 657 222 628 313 526 313 z m 526 61 b 482 61 469 111 469 156 b 469 187 476 215 490 233 b 499 244 511 251 526 251 b 569 251 582 196 582 157 b 582 121 574 92 560 76 b 551 67 539 61 526 61 z m 207 387 b 231 387 251 391 269 401 b 314 424 338 475 338 546 b 338 610 309 701 207 701 b 182 701 160 695 142 685 b 97 659 74 604 74 544 b 74 470 105 387 207 387 z m 206 639 b 250 639 263 584 263 545 b 263 508 255 480 240 464 b 232 454 220 449 206 449 b 163 449 149 499 149 544 b 149 575 156 603 170 621 b 180 632 191 639 206 639 z"},"m":{"x_min":0,"x_max":602,"ha":602,"o":"m 424 358 l 424 0 l 424 0 l 565 0 l 565 700 l 424 700 l 424 699 l 303 412 l 180 700 l 40 700 l 40 0 l 180 0 l 180 359 l 239 218 l 240 218 l 240 218 l 366 218 z"},"#":{"x_min":0,"x_max":605,"ha":605,"o":"m 572 408 l 588 505 l 473 505 l 495 637 l 411 637 l 389 505 l 275 505 l 298 637 l 213 637 l 190 505 l 75 505 l 60 407 l 174 407 l 151 276 l 37 276 l 21 181 l 137 181 l 115 47 l 198 47 l 221 181 l 334 181 l 312 47 l 396 47 l 418 181 l 533 181 l 550 276 l 435 276 l 457 408 z m 350 276 l 236 276 l 258 408 l 375 408 z"},",":{"x_min":0,"x_max":221,"ha":221,"o":"m 46 124 l 46 0 l 110 0 b 110 -37 98 -56 82 -67 b 70 -76 56 -77 46 -77 l 46 -140 b 73 -140 94 -135 111 -125 b 153 -105 171 -61 171 3 b 171 83 171 124 171 124 z"},"n":{"x_min":0,"x_max":570,"ha":570,"o":"m 399 700 l 399 273 l 180 700 l 40 700 l 40 0 l 180 0 l 180 427 l 399 0 l 539 0 l 539 700 z"},"h":{"x_min":0,"x_max":578,"ha":578,"o":"m 180 0 l 180 290 l 398 290 l 398 0 l 539 0 l 539 700 l 398 700 l 398 419 l 180 419 l 180 700 l 40 700 l 40 0 z"},"z":{"x_min":0,"x_max":501,"ha":501,"o":"m 464 699 l 40 699 l 40 573 l 327 573 l 40 132 l 40 -1 l 464 -1 l 464 132 l 186 132 l 464 567 z"},"B":{"x_min":0,"x_max":576,"ha":576,"o":"m 472 383 b 494 416 507 455 507 498 b 507 566 474 626 424 663 b 392 686 352 700 310 700 l 40 700 l 40 0 l 328 0 b 380 0 428 19 465 50 l 465 50 b 513 91 543 152 543 220 b 543 284 515 343 472 383 z m 169 574 l 290 574 b 300 574 310 572 319 568 l 319 568 b 343 556 359 532 359 503 b 359 503 360 478 343 459 l 343 459 b 333 448 317 439 290 439 b 219 439 169 439 169 439 z m 336 154 b 327 150 317 148 306 148 l 169 148 l 169 302 l 306 302 b 318 302 328 300 338 295 b 364 283 382 256 382 225 b 382 193 363 166 336 154 z"},"K":{"x_min":0,"x_max":550,"ha":550,"o":"m 536 700 l 388 700 l 180 422 l 180 700 l 40 700 l 40 0 l 180 0 l 180 223 l 234 295 l 394 0 l 536 0 l 316 405 z"},"R":{"x_min":0,"x_max":599,"ha":599,"o":"m 508 319 b 486 340 465 348 465 348 b 465 348 556 402 556 511 b 556 579 523 637 474 671 b 444 691 409 703 371 703 b 270 703 40 703 40 703 l 40 0 l 180 0 l 180 277 b 180 277 263 277 317 277 b 348 277 375 261 393 235 b 405 216 413 191 413 163 b 413 96 413 0 413 0 l 556 0 b 556 0 556 102 556 208 b 556 262 532 298 508 319 z m 374 424 b 363 417 349 412 333 412 l 186 412 l 186 564 b 186 564 258 564 333 564 b 345 564 356 562 365 558 b 417 535 419 455 374 424 z"},"T":{"x_min":0,"x_max":577,"ha":577,"o":"m 365 0 l 365 573 l 566 573 l 566 700 l 10 700 l 10 573 l 210 573 l 210 0 z"},"P":{"x_min":0,"x_max":568,"ha":568,"o":"m 448 659 b 414 685 371 700 325 700 l 40 700 l 40 0 l 168 0 l 168 261 l 325 261 b 377 261 424 280 461 311 b 508 352 538 412 538 480 b 538 554 502 620 448 659 z m 333 415 b 324 411 314 409 303 409 l 168 409 l 168 563 l 303 563 b 315 562 325 560 335 556 b 361 543 378 517 378 486 b 378 454 360 427 333 415 z"},"|":{"x_min":0,"x_max":353,"ha":353,"o":"m 134 -101 l 242 -101 l 242 802 l 134 802 z"},"t":{"x_min":0,"x_max":577,"ha":577,"o":"m 365 0 l 365 573 l 566 573 l 566 700 l 10 700 l 10 573 l 210 573 l 210 0 z"},"M":{"x_min":0,"x_max":602,"ha":602,"o":"m 424 358 l 424 0 l 424 0 l 565 0 l 565 700 l 424 700 l 424 699 l 303 412 l 180 700 l 40 700 l 40 0 l 180 0 l 180 359 l 239 218 l 240 218 l 240 218 l 366 218 z"},"g":{"x_min":0,"x_max":572,"ha":572,"o":"m 536 420 l 289 420 l 289 281 l 388 281 l 388 225 b 388 214 386 203 382 193 l 382 193 b 369 154 332 126 288 126 b 245 126 208 154 195 193 b 191 203 189 214 189 225 l 189 473 b 189 484 191 495 195 506 b 209 544 245 572 288 572 b 332 572 368 544 382 506 l 446 536 l 510 567 b 470 649 386 705 288 705 b 191 705 107 649 66 567 b 50 534 41 497 41 458 l 41 242 b 41 203 50 166 67 133 b 107 51 191 -5 288 -5 b 386 -5 470 51 510 133 l 510 133 b 527 166 536 203 536 242 z"},"j":{"x_min":0,"x_max":520,"ha":520,"o":"m 332 700 l 332 226 b 332 215 331 204 327 194 b 314 155 277 126 233 126 b 189 126 152 155 139 194 l 76 164 l 10 133 b 51 51 135 -5 233 -5 b 331 -5 415 51 455 133 b 472 166 481 204 481 243 l 481 700 z"},"i":{"x_min":0,"x_max":220,"ha":220,"o":"m 180 700 l 40 700 l 40 0 l 180 0 z"},"y":{"x_min":0,"x_max":515,"ha":515,"o":"m 360 700 l 258 498 l 157 700 l 9 700 l 186 347 l 186 0 l 334 0 l 334 347 l 508 700 z"},"@":{"x_min":0,"x_max":785,"ha":785,"o":"m 395 700 b 334 700 282 687 239 665 b 115 602 58 466 58 347 b 58 182 157 0 390 0 b 465 0 525 22 572 52 l 535 119 b 535 119 485 72 395 72 b 219 72 132 213 132 350 b 132 448 180 547 268 596 b 304 616 346 628 395 628 b 562 628 656 507 656 354 b 656 278 631 250 605 240 b 596 236 587 235 579 235 b 554 235 554 252 554 269 b 554 286 554 517 554 517 l 463 517 l 463 494 b 463 494 446 529 376 529 b 350 529 323 523 300 511 b 251 486 214 431 214 338 b 214 199 292 148 382 148 b 404 148 421 151 435 155 b 474 168 485 191 485 191 b 485 191 489 155 561 155 b 587 155 615 161 639 174 b 691 201 732 258 732 350 b 732 502 654 700 395 700 z m 406 231 b 400 229 393 228 385 228 b 326 228 308 278 308 338 b 308 374 315 405 332 425 b 345 440 362 449 385 449 b 435 449 459 413 459 346 b 459 289 448 242 406 231 z"},".":{"x_min":0,"x_max":221,"ha":221,"o":"m 46 0 l 170 0 l 170 125 l 46 125 z"},"p":{"x_min":0,"x_max":568,"ha":568,"o":"m 448 659 b 414 685 371 700 325 700 l 40 700 l 40 0 l 168 0 l 168 261 l 325 261 b 377 261 424 280 461 311 b 508 352 538 412 538 480 b 538 554 502 620 448 659 z m 333 415 b 324 411 314 409 303 409 l 168 409 l 168 563 l 303 563 b 315 562 325 560 335 556 b 361 543 378 517 378 486 b 378 454 360 427 333 415 z"},"X":{"x_min":0,"x_max":520,"ha":520,"o":"m 336 347 l 509 701 l 361 701 l 260 499 l 159 701 l 11 701 l 187 347 l 187 347 l 11 1 l 159 1 l 260 203 l 361 1 l 509 1 l 335 347 z"},"*":{"x_min":0,"x_max":415,"ha":415,"o":"m 265 543 l 356 574 l 335 633 l 246 603 l 246 698 l 184 698 l 184 603 l 94 634 l 74 574 l 163 543 l 110 467 l 157 428 l 215 509 l 274 428 l 324 467 z"},"Y":{"x_min":0,"x_max":515,"ha":515,"o":"m 360 700 l 258 498 l 157 700 l 9 700 l 186 347 l 186 0 l 334 0 l 334 347 l 508 700 z"},"c":{"x_min":0,"x_max":542,"ha":542,"o":"m 381 193 b 368 154 331 126 287 126 b 244 126 207 154 193 193 b 190 203 188 214 188 225 l 188 473 b 188 484 190 495 194 506 b 208 544 244 572 287 572 b 330 572 367 544 381 506 l 444 536 l 509 567 b 469 649 385 705 287 705 b 190 705 106 649 65 567 b 49 534 40 497 40 458 l 40 242 b 40 203 49 166 65 133 b 106 51 190 -5 287 -5 b 385 -5 469 51 509 133 l 444 164 z"},"!":{"x_min":0,"x_max":299,"ha":299,"o":"m 88 -1 l 215 -1 l 215 126 l 88 126 z m 120 192 l 184 192 l 216 485 l 216 699 l 87 699 l 87 484 z"},"/":{"x_min":0,"x_max":376,"ha":376,"o":"m 373 700 l 264 700 l 1 0 l 108 0 z"},"[":{"x_min":0,"x_max":333,"ha":333,"o":"m 279 749 l 62 749 l 62 -64 l 279 -64 l 279 26 l 178 26 l 178 660 l 279 660 z"},"6":{"x_min":0,"x_max":487,"ha":487,"o":"m 438 247 b 437 313 416 364 377 401 b 339 436 292 454 238 454 b 215 454 193 451 173 444 l 173 465 l 173 465 l 173 486 b 173 524 182 562 238 563 b 294 562 303 524 303 486 l 303 484 l 437 484 l 437 493 b 437 558 416 610 375 646 b 337 682 291 700 238 700 l 238 700 b 238 700 238 700 238 700 b 238 700 238 700 238 700 b 238 700 238 700 238 700 b 185 700 139 682 101 646 b 61 610 39 558 39 493 l 39 247 b 39 247 39 247 39 247 l 39 208 b 39 142 61 91 101 54 b 139 19 185 1 238 0 l 239 0 b 293 1 339 19 377 55 b 416 91 437 142 438 208 z m 304 213 b 303 176 294 137 238 137 b 193 137 174 160 173 213 l 173 227 l 173 241 b 173 278 182 316 238 318 b 294 316 303 278 304 241 z"},"r":{"x_min":0,"x_max":599,"ha":599,"o":"m 508 319 b 486 340 465 348 465 348 b 465 348 556 402 556 511 b 556 579 523 637 474 671 b 444 691 409 703 371 703 b 270 703 40 703 40 703 l 40 0 l 180 0 l 180 277 b 180 277 263 277 317 277 b 348 277 375 261 393 235 b 405 216 413 191 413 163 b 413 96 413 0 413 0 l 556 0 b 556 0 556 102 556 208 b 556 262 532 298 508 319 z m 374 424 b 363 417 349 412 333 412 l 186 412 l 186 564 b 186 564 258 564 333 564 b 345 564 356 562 365 558 b 417 535 419 455 374 424 z"},"2":{"x_min":0,"x_max":451,"ha":451,"o":"m 207 138 b 207 245 424 329 424 492 b 424 551 403 601 365 640 b 327 679 278 699 218 700 l 217 700 b 163 699 116 679 79 640 b 42 601 22 551 20 492 l 19 469 l 153 469 l 155 489 b 157 513 165 531 178 544 b 191 556 206 562 224 562 b 246 562 261 555 272 542 b 283 528 289 512 289 493 b 289 486 288 478 286 469 b 283 461 278 451 271 441 b 180 350 20 240 20 0 l 424 0 l 424 138 l 207 138 z"},"{":{"x_min":0,"x_max":333,"ha":333,"o":"m 298 750 b 209 750 115 681 115 540 b 115 374 26 368 26 368 l 26 316 b 26 316 115 299 115 151 b 115 3 160 -67 298 -67 l 298 -12 b 298 -12 230 -12 230 147 b 230 305 134 340 134 340 b 134 340 230 396 230 528 b 230 672 298 707 298 707 z"},"9":{"x_min":0,"x_max":468,"ha":468,"o":"m 30 453 b 32 388 52 336 91 300 b 129 264 176 246 230 246 b 253 246 275 250 296 257 l 296 236 l 296 236 l 296 214 b 295 177 287 138 230 137 b 174 138 166 177 165 214 l 165 216 l 31 216 l 31 208 b 32 142 53 90 94 54 b 132 19 178 1 230 1 l 230 1 b 230 1 230 1 230 1 b 230 1 230 1 230 1 b 230 1 230 1 231 1 b 283 1 329 19 367 54 b 408 90 429 142 429 208 l 429 453 b 429 453 429 453 429 453 l 429 493 b 429 558 408 610 367 646 b 329 682 283 700 230 701 l 230 701 b 176 700 129 681 91 646 b 52 610 32 558 30 492 z m 164 487 b 165 525 174 563 230 564 b 275 563 295 540 296 487 l 296 474 l 296 460 b 295 422 287 384 230 383 b 174 384 165 422 164 460 z"}," ":{"x_min":0,"x_max":200,"ha":200,"o":""},"I":{"x_min":0,"x_max":220,"ha":220,"o":"m 40 0 l 180 0 l 180 700 l 40 700 z"},"H":{"x_min":0,"x_max":578,"ha":578,"o":"m 399 700 l 399 419 l 180 419 l 180 700 l 40 700 l 40 0 l 180 0 l 180 290 l 399 290 l 399 0 l 539 0 l 539 700 z"},"4":{"x_min":0,"x_max":516,"ha":516,"o":"m 425 231 l 425 700 l 396 700 l 289 700 l 245 700 l 25 213 l 25 97 l 289 97 l 289 0 l 425 0 l 425 97 l 476 97 l 476 231 z m 181 231 l 289 467 l 289 231 z"},"~":{"x_min":0,"x_max":433,"ha":433,"o":"m 107 568 b 107 568 102 610 150 610 b 197 610 233 575 291 575 b 376 575 389 688 389 688 l 333 688 b 333 688 330 645 291 645 b 244 645 223 682 154 682 b 63 682 50 568 50 568 z"},"D":{"x_min":0,"x_max":575,"ha":575,"o":"m 523 586 b 491 663 417 700 350 700 b 261 700 40 700 40 700 l 40 0 b 40 0 202 0 319 0 b 377 0 448 39 493 100 b 521 136 539 181 539 229 l 539 499 b 539 533 533 561 523 586 z m 385 477 l 385 236 b 385 208 376 186 362 170 b 344 150 317 140 289 140 b 239 140 177 140 177 140 l 177 562 b 177 562 254 562 289 562 b 315 562 355 555 374 522 b 381 510 385 496 385 477 z m 241 751 l 311 751 b 353 811 409 832 409 832 l 380 863 l 359 887 l 276 819 l 193 887 l 171 863 l 143 832 b 143 832 199 811 241 751 z"},"^":{"x_min":0,"x_max":320,"ha":320,"o":"m 200 685 l 130 685 b 88 625 32 604 32 604 l 61 573 l 82 549 l 165 617 l 248 549 l 270 573 l 298 604 b 298 604 242 625 200 685 z"},"0":{"x_min":0,"x_max":467,"ha":467,"o":"m 435 492 b 434 557 413 609 374 645 b 336 681 289 699 235 699 b 182 699 136 681 98 645 b 57 609 36 557 36 492 l 36 207 b 36 141 57 90 98 53 b 136 18 182 0 235 -1 l 235 -1 l 235 -1 b 289 0 336 18 374 54 b 413 90 434 141 435 207 z m 235 562 b 291 561 300 523 301 486 l 301 212 b 300 175 291 136 235 136 b 190 136 170 159 170 212 l 170 485 b 170 523 179 561 235 562 z"},"F":{"x_min":0,"x_max":532,"ha":532,"o":"m 500 561 l 500 700 l 40 700 l 40 0 l 179 0 l 179 285 l 374 285 l 374 424 l 179 424 l 179 561 z"},"`":{"x_min":0,"x_max":308,"ha":308,"o":"m 273 550 b 215 611 192 685 192 685 l 63 685 b 93 641 135 594 189 550 z"},"k":{"x_min":0,"x_max":550,"ha":550,"o":"m 536 700 l 388 700 l 180 422 l 180 700 l 40 700 l 40 0 l 180 0 l 180 223 l 234 295 l 394 0 l 536 0 l 316 405 z"},"u":{"x_min":0,"x_max":580,"ha":580,"o":"m 390 700 l 390 228 b 390 217 388 206 385 196 b 372 156 334 128 290 128 b 246 128 209 156 195 196 b 192 206 190 217 190 228 l 189 700 l 40 700 l 40 245 b 40 205 49 168 66 134 b 107 52 192 -5 290 -5 b 389 -5 474 52 514 134 b 531 168 539 205 539 245 l 539 700 z"},"]":{"x_min":0,"x_max":333,"ha":333,"o":"m 63 660 l 164 660 l 164 26 l 63 26 l 63 -64 l 280 -64 l 280 749 l 63 749 z"},"U":{"x_min":0,"x_max":580,"ha":580,"o":"m 390 700 l 390 228 b 390 217 388 206 385 196 b 372 156 334 128 290 128 b 246 128 209 156 195 196 b 192 206 190 217 190 228 l 189 700 l 40 700 l 40 245 b 40 205 49 168 66 134 b 107 52 192 -5 290 -5 b 389 -5 474 52 514 134 b 531 168 539 205 539 245 l 539 700 z"},"o":{"x_min":0,"x_max":575,"ha":575,"o":"m 509 567 b 469 649 385 705 287 705 b 190 705 106 649 65 567 b 49 534 40 497 40 458 l 40 242 b 40 203 49 166 66 133 b 106 51 190 -5 287 -5 b 385 -5 469 51 509 133 b 526 166 535 203 535 242 l 535 458 b 535 497 526 534 509 567 z m 387 473 l 387 225 b 387 214 385 203 381 193 b 368 154 331 126 287 126 b 244 126 207 154 194 193 b 190 203 188 214 188 225 l 188 473 b 188 484 190 495 194 506 b 208 544 244 572 287 572 b 331 572 367 544 381 506 b 385 495 387 484 387 473 z"},"N":{"x_min":0,"x_max":570,"ha":570,"o":"m 399 700 l 399 273 l 180 700 l 40 700 l 40 0 l 180 0 l 180 427 l 399 0 l 539 0 l 539 700 z"},"+":{"x_min":0,"x_max":516,"ha":516,"o":"m 486 390 l 302 390 l 302 574 l 223 574 l 223 390 l 39 390 l 39 311 l 223 311 l 223 127 l 302 127 l 302 311 l 486 311 z"},"G":{"x_min":0,"x_max":572,"ha":572,"o":"m 536 420 l 289 420 l 289 281 l 388 281 l 388 225 b 388 214 386 203 382 193 l 382 193 b 369 154 332 126 288 126 b 245 126 208 154 195 193 b 191 203 189 214 189 225 l 189 473 b 189 484 191 495 195 506 b 209 544 245 572 288 572 b 332 572 368 544 382 506 l 446 536 l 510 567 b 470 649 386 705 288 705 b 191 705 107 649 66 567 b 50 534 41 497 41 458 l 41 242 b 41 203 50 166 67 133 b 107 51 191 -5 288 -5 b 386 -5 470 51 510 133 l 510 133 b 527 166 536 203 536 242 z"},"q":{"x_min":0,"x_max":574,"ha":574,"o":"m 468 74 b 484 91 498 111 509 133 b 525 166 534 203 534 242 l 534 458 b 534 497 525 534 509 567 b 469 649 384 705 287 705 b 189 705 105 649 65 567 b 49 534 39 497 39 458 l 39 242 b 39 203 49 166 65 133 b 105 51 190 -5 287 -5 b 315 -5 341 -1 366 8 l 446 -111 l 607 -111 z m 386 225 b 386 214 384 203 381 193 b 368 154 331 126 287 126 b 243 126 206 154 193 193 b 190 203 188 214 188 225 l 188 473 b 188 485 190 496 193 506 b 207 545 244 572 287 572 b 330 572 367 545 380 506 b 384 496 386 485 386 473 z"},"d":{"x_min":0,"x_max":575,"ha":575,"o":"m 523 586 b 491 663 417 700 350 700 b 261 700 40 700 40 700 l 40 0 b 40 0 202 0 319 0 b 377 0 448 39 493 100 b 521 136 539 181 539 229 l 539 499 b 539 533 533 561 523 586 z m 385 477 l 385 236 b 385 208 376 186 362 170 b 344 150 317 140 289 140 b 239 140 177 140 177 140 l 177 562 b 177 562 254 562 289 562 b 315 562 355 555 374 522 b 381 510 385 496 385 477 z"},"1":{"x_min":0,"x_max":312,"ha":312,"o":"m 146 699 b 146 699 91 620 41 620 l 41 470 b 97 470 131 516 131 516 l 131 -1 l 267 -1 l 267 699 z"},"5":{"x_min":0,"x_max":489,"ha":489,"o":"m 436 302 b 436 322 430 339 426 354 b 417 380 402 404 383 424 b 369 439 351 452 330 463 l 329 463 b 306 472 281 478 254 478 l 253 478 b 225 478 199 472 175 461 l 175 562 l 426 562 l 426 700 l 45 700 l 45 287 l 166 287 l 166 287 b 170 318 185 344 235 345 b 296 344 305 305 306 267 l 306 213 b 305 175 296 136 235 135 b 187 136 166 159 165 213 l 165 213 l 31 213 l 34 187 b 44 122 69 73 110 43 b 149 14 193 0 241 0 l 241 0 b 276 0 308 9 334 25 b 360 41 380 58 394 77 b 410 96 422 119 429 144 b 433 162 436 181 436 208 b 436 218 436 281 436 302 z"}}}
